<svg xmlns="http://www.w3.org/2000/svg" viewBox="0 0 207 202" width="207" height="202">
    <rect x="30"  y="90"  width="24" height="24" fill="#0091FFB3"/>
    <rect x="62"  y="62"  width="20" height="20" fill="#0091FF80"/>
    <rect x="122" y="2"   width="20" height="20" fill="#0091FF80"/>
    <rect x="62"  y="182" width="20" height="20" fill="#0091FF80"/>
    <rect x="182" y="62"  width="20" height="20" fill="#0091FF80"/>
    <rect x="57"  y="117" width="30" height="30" fill="#0091FF"/>
    <rect x="26"  y="154" width="24" height="24" fill="#0091FFB3"/>
    <rect x="90"  y="90"  width="24" height="24" fill="#0091FFB3"/>
    <rect x="0"   y="120" width="24" height="24" fill="#0091FFB3"/>
    <rect x="147" y="87"  width="30" height="30" fill="#0091FF"/>
    <rect x="147" y="27"  width="30" height="30" fill="#0091FF"/>
    <rect x="87"  y="147" width="30" height="30" fill="#0091FF"/>
    <rect x="117" y="117" width="30" height="30" fill="#0091FF"/>
    <rect x="177" y="117" width="30" height="30" fill="#0091FF"/>
    <rect x="27"  y="27"  width="20" height="20" fill="#0091FF66"/>
    <rect x="153" y="153" width="24" height="24" fill="#0091FFB3"/>
    <rect x="120" y="60"  width="24" height="24" fill="#0091FFB3"/>
    <rect x="60"  y="0"   width="24" height="24" fill="#0091FFB3"/>
    <rect x="120" y="178" width="24" height="24" fill="#0091FFB3"/>
    <rect x="0"   y="60"  width="24" height="24" fill="#0091FFB3"/>
    <rect x="87"  y="27"  width="30" height="30" fill="#0091FF"/>
</svg>